<svg width="24" height="24" viewBox="0 0 24 24" fill="none" xmlns="http://www.w3.org/2000/svg">
<path d="M12.0001 11.5204C11.2801 11.5204 10.8001 12.0004 10.8001 12.7204C10.8001 13.2004 11.1601 13.5604 11.5201 13.6804L11.1601 15.3604H12.7201L12.3601 13.6804C12.8401 13.5604 13.0801 13.2004 13.0801 12.7204C13.2001 12.0004 12.7201 11.5204 12.0001 11.5204ZM12.1201 6.36039C11.2801 6.36039 10.4401 6.96039 10.4401 7.80039V9.60039H13.6801V7.80039C13.5601 6.96039 12.9601 6.36039 12.1201 6.36039ZM12.0001 2.40039L3.6001 6.00039V9.60039C3.7201 14.8804 7.0801 19.5604 12.0001 21.4804C16.9201 19.5604 20.2801 14.8804 20.4001 9.60039V6.00039L12.0001 2.40039ZM16.8001 15.6004C16.8001 16.3204 16.3201 16.8004 15.6001 16.8004H8.4001C7.6801 16.8004 7.2001 16.3204 7.2001 15.6004V10.8004C7.2001 10.0804 7.6801 9.60039 8.4001 9.60039H8.7601V7.80039C8.8801 6.12039 10.3201 4.80039 12.0001 4.80039C13.6801 4.80039 15.1201 6.12039 15.2401 7.80039V9.60039H15.6001C16.3201 9.60039 16.8001 10.0804 16.8001 10.8004V15.6004Z" fill="#5A5D86"/>
</svg>
