<svg width="24" height="24" viewBox="0 0 24 24" fill="none" xmlns="http://www.w3.org/2000/svg">
<path d="M8.68588 4.00037L11.2929 1.39337C11.4804 1.2059 11.7347 1.10059 11.9999 1.10059C12.265 1.10059 12.5194 1.2059 12.7069 1.39337L15.3139 4.00037H18.9999C19.2651 4.00037 19.5195 4.10573 19.707 4.29327C19.8945 4.4808 19.9999 4.73516 19.9999 5.00037V8.68637L22.6069 11.2934C22.7944 11.4809 22.8997 11.7352 22.8997 12.0004C22.8997 12.2655 22.7944 12.5198 22.6069 12.7074L19.9999 15.3144V19.0004C19.9999 19.2656 19.8945 19.5199 19.707 19.7075C19.5195 19.895 19.2651 20.0004 18.9999 20.0004H15.3139L12.7069 22.6074C12.5194 22.7948 12.265 22.9002 11.9999 22.9002C11.7347 22.9002 11.4804 22.7948 11.2929 22.6074L8.68588 20.0004H4.99988C4.73467 20.0004 4.48031 19.895 4.29278 19.7075C4.10524 19.5199 3.99988 19.2656 3.99988 19.0004V15.3144L1.39288 12.7074C1.20541 12.5198 1.1001 12.2655 1.1001 12.0004C1.1001 11.7352 1.20541 11.4809 1.39288 11.2934L3.99988 8.68637V5.00037C3.99988 4.73516 4.10524 4.4808 4.29278 4.29327C4.48031 4.10573 4.73467 4.00037 4.99988 4.00037H8.68588ZM5.99988 6.00037V9.51537L3.51488 12.0004L5.99988 14.4854V18.0004H9.51488L11.9999 20.4854L14.4849 18.0004H17.9999V14.4854L20.4849 12.0004L17.9999 9.51537V6.00037H14.4849L11.9999 3.51537L9.51488 6.00037H5.99988ZM11.9999 16.0004C10.939 16.0004 9.9216 15.5789 9.17146 14.8288C8.42131 14.0787 7.99988 13.0612 7.99988 12.0004C7.99988 10.9395 8.42131 9.92209 9.17146 9.17195C9.9216 8.4218 10.939 8.00037 11.9999 8.00037C13.0608 8.00037 14.0782 8.4218 14.8283 9.17195C15.5785 9.92209 15.9999 10.9395 15.9999 12.0004C15.9999 13.0612 15.5785 14.0787 14.8283 14.8288C14.0782 15.5789 13.0608 16.0004 11.9999 16.0004ZM11.9999 14.0004C12.5303 14.0004 13.039 13.7897 13.4141 13.4146C13.7892 13.0395 13.9999 12.5308 13.9999 12.0004C13.9999 11.4699 13.7892 10.9612 13.4141 10.5862C13.039 10.2111 12.5303 10.0004 11.9999 10.0004C11.4695 10.0004 10.9607 10.2111 10.5857 10.5862C10.2106 10.9612 9.99988 11.4699 9.99988 12.0004C9.99988 12.5308 10.2106 13.0395 10.5857 13.4146C10.9607 13.7897 11.4695 14.0004 11.9999 14.0004Z" fill="#F5F5F5" fill-opacity="0.4"/>
</svg>
